<svg xmlns="http://www.w3.org/2000/svg" width="30" height="30" viewBox="0 0 30 30"><path fill="#93C01F" d="M30 15c0 8.284-6.716 15-15 15-8.284 0-15-6.716-15-15C0 6.716 6.716 0 15 0c8.284 0 15 6.716 15 15"/><path fill="#FFF" d="M15.017 8.041a6.971 6.971 0 0 0-1.737.218 6.94 6.94 0 1 0 3.44 13.45 6.94 6.94 0 0 0-1.703-13.668zM3.72 8.073v13.882h6.414a8.461 8.461 0 0 1-3.616-6.94c0-2.872 1.429-5.409 3.616-6.942H3.72zm16.147 0a8.461 8.461 0 0 1 3.616 6.941c0 2.871-1.43 5.409-3.616 6.941h6.413V8.073h-6.413zm-5.052 2.29l.344 1.346c.63-.12 1.12-.12 1.6.075.618.251.761.925.79 1.087.03.162.038.486-.051.72-.09.233-.38.518-.38.518s.425-.018.763.123c.338.142.644.464.773 1.018.13.553.157 1.129-.255 1.606-.401.465-.905.666-1.142.76l-.018.007a8.739 8.739 0 0 1-.52.18l.344 1.348-.83.212-.34-1.326-.633.161.34 1.327-.831.212-.34-1.327-1.634.418-.084-1.041.497-.127c.167-.042.232-.076.285-.16.053-.083.043-.188.022-.27l-.878-3.434c-.055-.215-.088-.268-.215-.354-.127-.085-.364-.04-.495-.007l-.48.123-.22-.862 1.634-.417-.34-1.33.83-.212.34 1.33.633-.162-.34-1.33.831-.212zm.365 2.39a2.8 2.8 0 0 0-.729.099c-.261.063-.52.153-.52.153l.41 1.602s.392-.088.692-.176c.3-.09.604-.241.804-.429a.67.67 0 0 0 .196-.723c-.086-.3-.353-.505-.721-.523a3.07 3.07 0 0 0-.132-.003zm.887 2.385c-.193.002-.385.02-.574.055-.42.078-.94.24-.94.24l.455 1.78s.555-.129.916-.25c.362-.122.719-.312.882-.465.164-.153.351-.375.247-.782-.104-.407-.42-.508-.595-.546a1.923 1.923 0 0 0-.391-.032z"/></svg>