<svg xmlns="http://www.w3.org/2000/svg" width="30" height="30" viewBox="0 0 30 30"><path fill="#F7931A" d="M29.6 18.6A15 15 0 1 1 .4 11.4a15 15 0 0 1 29.2 7.2z"/><path fill="#FFF" d="M21.6 12.9c.3-2-1.2-3.1-3.3-3.8l.7-2.7-1.7-.4-.6 2.6-1.3-.3.6-2.7-1.6-.4-.7 2.7-1-.2-2.3-.6L10 9s1.2.2 1.1.3c.7.1.8.6.8 1l-.8 3h.2-.2l-1 4.3c-.1.2-.3.5-.8.4l-1.2-.3-.8 1.9 2.1.5 1.2.3-.7 2.8 1.7.4.7-2.7 1.3.3-.7 2.7 1.6.4.7-2.7c2.8.5 5 .3 5.8-2.2.7-2 0-3.3-1.5-4 1-.3 1.9-1 2.1-2.4zM18 18c-.6 2-4 1-5.1.7l.9-3.6c1.1.3 4.7.8 4.2 3zm.5-5.3c-.5 1.9-3.4 1-4.3.7l.8-3.3c1 .3 4 .7 3.5 2.6z"/></svg>