<svg xmlns="http://www.w3.org/2000/svg" width="56" height="20" viewBox="0 0 56 20"><path fill="#00E5DD" d="M39.35 7.53c.28-1.6.28-3.98 0-5.58h-5.17c-.28 1.6-.28 3.98 0 5.58h5.17z"/><linearGradient id="a" x1="-7200.85" x2="-7200.85" y1="294.13" y2="261.92" gradientTransform="rotate(90 -3454.74 3750.85)" gradientUnits="userSpaceOnUse"><stop offset="0" stop-color="#00e5dd" stop-opacity="0"/><stop offset="1" stop-color="#00e5dd" stop-opacity=".8"/></linearGradient><path fill="url(#a)" d="M34.18 1.95h-32c-.28 1.6-.28 3.98 0 5.58h32c-.28-1.6-.28-3.98 0-5.58z" opacity=".85"/><g><path fill="#00E5DD" d="M21.82 18.05c.28-1.6.28-3.98 0-5.58h-5.17c-.28 1.6-.28 3.98 0 5.58h5.17z"/><linearGradient id="b" x1="-7190.33" x2="-7190.33" y1="274.29" y2="242.08" gradientTransform="rotate(90 -3454.74 3750.85)" gradientUnits="userSpaceOnUse"><stop offset="0" stop-color="#00e5dd" stop-opacity=".8"/><stop offset="1" stop-color="#00e5dd" stop-opacity="0"/></linearGradient><path fill="url(#b)" d="M21.82 18.05h32c.28-1.6.28-3.98 0-5.58h-32c.28 1.6.28 3.98 0 5.58z" opacity=".85"/></g></svg>